<?xml version="1.0" encoding="UTF-8" standalone="no"?>
<!-- Created with Inkscape (http://www.inkscape.org/) -->

<svg
   xmlns:dc="http://purl.org/dc/elements/1.1/"
   xmlns:cc="http://creativecommons.org/ns#"
   xmlns:rdf="http://www.w3.org/1999/02/22-rdf-syntax-ns#"
   xmlns:svg="http://www.w3.org/2000/svg"
   xmlns="http://www.w3.org/2000/svg"
   xmlns:sodipodi="http://sodipodi.sourceforge.net/DTD/sodipodi-0.dtd"
   xmlns:inkscape="http://www.inkscape.org/namespaces/inkscape"
   width="276.37796"
   height="276.37796"
   id="svg2"
   version="1.1"
   inkscape:version="0.48.1 r9760"
   sodipodi:docname="ET2 - Final2.svg">
  <defs
     id="defs4">
    <filter
       inkscape:collect="always"
       id="filter3992"
       color-interpolation-filters="sRGB">
      <feGaussianBlur
         inkscape:collect="always"
         stdDeviation="3.5702229"
         id="feGaussianBlur3994" />
    </filter>
    <filter
       inkscape:collect="always"
       id="filter4022"
       color-interpolation-filters="sRGB">
      <feGaussianBlur
         inkscape:collect="always"
         stdDeviation="1.8717188"
         id="feGaussianBlur4024" />
    </filter>
  </defs>
  <sodipodi:namedview
     id="base"
     pagecolor="#ffffff"
     bordercolor="#666666"
     borderopacity="1.0"
     inkscape:pageopacity="0.0"
     inkscape:pageshadow="2"
     inkscape:zoom="1.4142136"
     inkscape:cx="195.16666"
     inkscape:cy="169.78733"
     inkscape:document-units="mm"
     inkscape:current-layer="layer1"
     showgrid="false"
     units="mm"
     showguides="true"
     inkscape:guide-bbox="true"
     inkscape:window-width="1280"
     inkscape:window-height="743"
     inkscape:window-x="0"
     inkscape:window-y="26"
     inkscape:window-maximized="1" />
  <metadata
     id="metadata7">
    <rdf:RDF>
      <cc:Work
         rdf:about="">
        <dc:format>image/svg+xml</dc:format>
        <dc:type
           rdf:resource="http://purl.org/dc/dcmitype/StillImage" />
        <dc:title></dc:title>
      </cc:Work>
    </rdf:RDF>
  </metadata>
  <g
     inkscape:label="Capa 1"
     inkscape:groupmode="layer"
     id="layer1"
     transform="translate(0,-775.98402)">
    <g
       id="g4026"
       transform="translate(-517.52616,701.01525)">
      <path
         inkscape:connector-curvature="0"
         id="path3023-0-8"
         d="m 645.67865,85.975282 -0.375,0.9375 -11.0625,26.937508 -0.0937,0.28125 0,0.3125 0.0625,3.46875 0,0.375 0.15625,0.28125 c -2.82223,0.62112 -5.59027,1.36202 -8.3125,2.21875 -2.72223,0.85673 -5.41929,1.85443 -8.03125,2.9375 -2.61196,1.08307 -5.16486,2.26234 -7.65625,3.5625 -2.49139,1.30016 -4.9207,2.71077 -7.28125,4.21875 l -0.21875,-0.34375 -0.0937,-0.125 -0.0937,-0.0937 -2.375,-2.53125 -0.21875,-0.21875 -0.28125,-0.125 -26.875,-11.15625 -0.9375,-0.40625 -0.6875,0.71875 -12.28125,12.25 -0.71875,0.71875 0.4375,0.9375 11.21875,26.8125 0.125,0.28125 0.21875,0.21875 2.5,2.375 0.0937,0.0937 0.125,0.0937 0.34375,0.21875 c -1.50688,2.3588 -2.91565,4.78954 -4.21875,7.28125 -1.3031,2.49171 -2.50602,5.04334 -3.59375,7.65625 -1.08773,2.61291 -2.04547,5.30885 -2.90625,8.03125 -0.86078,2.7224 -1.62775,5.49232 -2.25,8.3125 l -0.375,-0.0937 -0.0937,0 -0.0937,0 -3.5,-0.125 -0.3125,-0.0312 -0.3125,0.125 -26.90625,11.03125 -0.9375,0.375 0,1.03125 0,17.34375 0,1.03125 0.9375,0.34375 26.90625,11.0625 0.28125,0.0937 0.3125,0.0312 3.5,-0.0937 0.125,0 0.0937,0 0.375,-0.0937 c 0.6225,2.81772 1.38884,5.59668 2.25,8.3125 0.86116,2.71582 1.81831,5.39511 2.90625,8 1.08794,2.60489 2.29093,5.14006 3.59375,7.625 1.30282,2.48494 2.71293,4.89403 4.21875,7.25 l -0.34375,0.25 -0.125,0.0937 -0.0937,0.0937 -2.5,2.375 -0.21875,0.21875 -0.125,0.28125 -11.25,26.875 -0.375,0.90625 0.71875,0.71875 12.25,12.28125 0.71875,0.6875 0.90625,-0.375 26.875,-11.21875 0.28125,-0.125 0.21875,-0.25 2.375,-2.5 0.0937,-0.0937 0.0937,-0.125 0.21875,-0.34375 c 2.35648,1.5064 4.79471,2.91407 7.28125,4.21875 2.48654,1.30468 5.04935,2.50363 7.65625,3.59375 2.6069,1.09012 5.2512,2.07476 7.96875,2.9375 2.71755,0.86274 5.494,1.59624 8.3125,2.21875 l -0.0625,0.375 -0.0312,0.0937 0,0.15625 -0.0625,3.53125 0,0.3125 0.0937,0.28125 11.0625,26.875 0.375,0.9375 1,0 17.37503,0 1,-0.0312 0.375,-0.90625 11.0312,-26.875 0.1563,-0.28125 -0.031,-0.3125 -0.062,-3.5625 0,-0.0937 -0.031,-0.15625 -0.062,-0.34375 c 2.8193,-0.62239 5.5654,-1.38915 8.2812,-2.25 2.7158,-0.86085 5.3958,-1.81852 8,-2.90625 2.6042,-1.08773 5.1404,-2.29072 7.625,-3.59375 2.4847,-1.30303 4.9242,-2.71199 7.2813,-4.21875 l 0.25,0.375 0.062,0.0937 0.094,0.0937 2.4062,2.5 0.2188,0.25 0.2812,0.125 26.8438,11.21875 0.9375,0.375 0.7187,-0.6875 12.25,-12.28125 0.7188,-0.71875 -0.375,-0.90625 -11.25,-26.875 -0.125,-0.28125 -0.2188,-0.21875 -2.5312,-2.375 -0.094,-0.0937 -0.094,-0.0625 -0.375,-0.28125 c 1.5065,-2.35708 2.914,-4.76357 4.2187,-7.25 1.3048,-2.48643 2.5036,-5.04967 3.5938,-7.65625 1.0901,-2.60658 2.0748,-5.25125 2.9375,-7.96875 0.8626,-2.7175 1.5964,-5.49329 2.2187,-8.3125 l 0.375,0.0625 0.125,0.0312 0.125,0 3.5313,0.0625 0.3437,0.0312 0.2813,-0.125 26.8749,-11.0625 0.9063,-0.375 0,-1 0,-17.34375 0,-1 -0.9375,-0.40625 -26.8437,-11.03125 -0.2813,-0.125 -0.3437,0 -3.5625,0.15625 -0.094,0 -0.125,0 -0.375,0.0625 c -0.624,-2.83067 -1.355,-5.61607 -2.2188,-8.34375 -0.8637,-2.72768 -1.8453,-5.38426 -2.9375,-8 -1.0922,-2.61574 -2.3156,-5.19266 -3.625,-7.6875 -1.3094,-2.49484 -2.7035,-4.91625 -4.2187,-7.28125 0,-0.002 0.094,-0.0312 0.094,-0.0312 l 0.2812,-0.0937 0.2188,-0.21875 2.5312,-2.375 0.2188,-0.21875 0.125,-0.28125 11.25,-26.8125 0.375,-0.90625 -0.7188,-0.71875 -12.25,-12.28125 -0.7187,-0.6875 -0.9375,0.375 -26.8438,11.15625 -0.2812,0.125 -0.2188,0.21875 -2.4062,2.5 -0.1875,0.25 -0.125,0.3125 c 0,0 0,0.0892 0,0.0937 -2.3634,-1.51221 -4.8149,-2.94279 -7.3125,-4.25 -2.4976,-1.30721 -5.068,-2.50299 -7.6875,-3.59375 -2.6196,-1.09076 -5.2709,-2.07464 -8,-2.9375 -2.7292,-0.86286 -5.5174,-1.59524 -8.3438,-2.21875 l 0.1563,-0.3125 0,-0.3125 0.094,-3.5 -0.031,-0.3125 -0.094,-0.28125 -11.0625,-26.937507 -0.375,-0.90625 -1,-0.0312 -17.37503,0 -1,0 z"
         style="opacity:0.6;color:#000000;fill:#241f1c;fill-opacity:1;fill-rule:nonzero;stroke:#241f1c;stroke-width:3.54330707;stroke-linecap:round;stroke-miterlimit:4;stroke-opacity:1;stroke-dasharray:none;stroke-dashoffset:0;marker:none;visibility:visible;display:inline;overflow:visible;filter:url(#filter3992);enable-background:accumulate" />
      <path
         inkscape:connector-curvature="0"
         id="path3023-0"
         d="m 643.67865,81.975283 -0.375,0.9375 -11.0625,26.937507 -0.0937,0.28125 0,0.3125 0.0625,3.46875 0,0.375 0.15625,0.28125 c -2.82223,0.62112 -5.59027,1.36202 -8.3125,2.21875 -2.72223,0.85673 -5.41929,1.85443 -8.03125,2.9375 -2.61196,1.08307 -5.16486,2.26234 -7.65625,3.5625 -2.49139,1.30016 -4.9207,2.71077 -7.28125,4.21875 l -0.21875,-0.34375 -0.0937,-0.125 -0.0937,-0.0937 -2.375,-2.53125 -0.21875,-0.21875 -0.28125,-0.125 -26.875,-11.15625 -0.9375,-0.40625 -0.6875,0.71875 -12.28125,12.25 -0.71875,0.71875 0.4375,0.9375 11.21875,26.8125 0.125,0.28125 0.21875,0.21875 2.5,2.375 0.0937,0.0937 0.125,0.0937 0.34375,0.21875 c -1.50688,2.3588 -2.91565,4.78954 -4.21875,7.28125 -1.3031,2.49171 -2.50602,5.04334 -3.59375,7.65625 -1.08773,2.61291 -2.04547,5.30885 -2.90625,8.03125 -0.86078,2.7224 -1.62775,5.49232 -2.25,8.3125 l -0.375,-0.0937 -0.0937,0 -0.0937,0 -3.5,-0.125 -0.3125,-0.0312 -0.3125,0.125 -26.90625,11.03125 -0.9375,0.375 0,1.03125 0,17.34375 0,1.03125 0.9375,0.34375 26.90625,11.0625 0.28125,0.0937 0.3125,0.0312 3.5,-0.0937 0.125,0 0.0937,0 0.375,-0.0937 c 0.6225,2.81772 1.38884,5.59668 2.25,8.3125 0.86116,2.71582 1.81831,5.39511 2.90625,8 1.08794,2.60489 2.29093,5.14006 3.59375,7.625 1.30282,2.48494 2.71293,4.89403 4.21875,7.25 l -0.34375,0.25 -0.125,0.0937 -0.0937,0.0937 -2.5,2.375 -0.21875,0.21875 -0.125,0.28125 -11.25,26.875 -0.375,0.90625 0.71875,0.71875 12.25,12.28125 0.71875,0.6875 0.90625,-0.375 26.875,-11.21875 0.28125,-0.125 0.21875,-0.25 2.375,-2.5 0.0937,-0.0937 0.0937,-0.125 0.21875,-0.34375 c 2.35648,1.5064 4.79471,2.91407 7.28125,4.21875 2.48654,1.30468 5.04935,2.50363 7.65625,3.59375 2.6069,1.09012 5.2512,2.07476 7.96875,2.9375 2.71755,0.86274 5.494,1.59624 8.3125,2.21875 l -0.0625,0.375 -0.0312,0.0937 0,0.15625 -0.0625,3.53125 0,0.3125 0.0937,0.28125 11.0625,26.875 0.375,0.9375 1,0 17.37503,0 1,-0.0312 0.375,-0.90625 11.0312,-26.875 0.1563,-0.28125 -0.031,-0.3125 -0.062,-3.5625 0,-0.0937 -0.031,-0.15625 -0.062,-0.34375 c 2.8193,-0.62239 5.5654,-1.38915 8.2812,-2.25 2.7158,-0.86085 5.3958,-1.81852 8,-2.90625 2.6042,-1.08773 5.1404,-2.29072 7.625,-3.59375 2.4847,-1.30303 4.9242,-2.71199 7.2813,-4.21875 l 0.25,0.375 0.062,0.0937 0.094,0.0937 2.4062,2.5 0.2188,0.25 0.2812,0.125 26.8438,11.21875 0.9375,0.375 0.7187,-0.6875 12.25,-12.28125 0.7188,-0.71875 -0.375,-0.90625 -11.25,-26.875 -0.125,-0.28125 -0.2188,-0.21875 -2.5312,-2.375 -0.094,-0.0937 -0.094,-0.0625 -0.375,-0.28125 c 1.5065,-2.35708 2.914,-4.76357 4.2187,-7.25 1.3048,-2.48643 2.5036,-5.04967 3.5938,-7.65625 1.0901,-2.60658 2.0748,-5.25125 2.9375,-7.96875 0.8626,-2.7175 1.5964,-5.49329 2.2187,-8.3125 l 0.375,0.0625 0.125,0.0312 0.125,0 3.5313,0.0625 0.3437,0.0312 0.2813,-0.125 26.8749,-11.0625 0.9063,-0.375 0,-1 0,-17.34375 0,-1 -0.9375,-0.40625 -26.8437,-11.03125 -0.2813,-0.125 -0.3437,0 -3.5625,0.15625 -0.094,0 -0.125,0 -0.375,0.0625 c -0.624,-2.83067 -1.355,-5.61607 -2.2188,-8.34375 -0.8637,-2.72768 -1.8453,-5.38426 -2.9375,-8 -1.0922,-2.61574 -2.3156,-5.19266 -3.625,-7.6875 -1.3094,-2.49484 -2.7035,-4.91625 -4.2187,-7.28125 0,-0.002 0.094,-0.0312 0.094,-0.0312 l 0.2812,-0.0937 0.2188,-0.21875 2.5312,-2.375 0.2188,-0.21875 0.125,-0.28125 11.25,-26.8125 0.375,-0.90625 -0.7188,-0.71875 -12.25,-12.28125 -0.7187,-0.6875 -0.9375,0.375 -26.8438,11.15625 -0.2812,0.125 -0.2188,0.21875 -2.4062,2.5 -0.1875,0.25 -0.125,0.3125 c 0,0 0,0.0892 0,0.0937 -2.3634,-1.51221 -4.8149,-2.94279 -7.3125,-4.25 -2.4976,-1.30721 -5.068,-2.50299 -7.6875,-3.59375 -2.6196,-1.09076 -5.2709,-2.07464 -8,-2.9375 -2.7292,-0.86286 -5.5174,-1.59524 -8.3438,-2.21875 l 0.1563,-0.3125 0,-0.3125 0.094,-3.5 -0.031,-0.3125 -0.094,-0.28125 -11.0625,-26.937507 -0.375,-0.90625 -1,-0.0312 -17.37503,0 -1,0 z"
         style="color:#000000;fill:#ac9d93;fill-opacity:1;fill-rule:nonzero;stroke:#28170b;stroke-width:3.54330707;stroke-linecap:round;stroke-miterlimit:4;stroke-opacity:1;stroke-dasharray:none;stroke-dashoffset:0;marker:none;visibility:visible;display:inline;overflow:visible;enable-background:accumulate" />
      <path
         inkscape:connector-curvature="0"
         id="path3827-5-0"
         d="m 623.91359,146.13151 -0.0312,1.53125 0,24 30.5625,-16.8125 2.21875,-1.21875 0,2.5625 0,15.3125 27.3125,-16.59375 2.28125,-1.40625 0,2.65625 0,15.3125 26.21875,-16.5625 2.3125,-1.46875 0,2.71875 0,115.1875 0,1.5 -1.5,0 -119.84375,0 -1.5,0 0,-1.5 0,-123.6875 0,-1.5 1.5,0 28.9375,0 1.53125,-0.0312 z"
         style="color:#000000;fill:#241f1c;fill-opacity:0.77092513;fill-rule:nonzero;stroke:#241f1c;stroke-width:3.54330707;stroke-linecap:round;stroke-miterlimit:4;stroke-opacity:1;stroke-dasharray:none;stroke-dashoffset:0;marker:none;visibility:visible;display:inline;overflow:visible;filter:url(#filter4022);enable-background:accumulate" />
      <path
         inkscape:connector-curvature="0"
         id="path3827-5"
         d="m 623.91359,146.13151 -0.0312,1.53125 0,24 30.5625,-16.8125 2.21875,-1.21875 0,2.5625 0,15.3125 27.3125,-16.59375 2.28125,-1.40625 0,2.65625 0,15.3125 26.21875,-16.5625 2.3125,-1.46875 0,2.71875 0,115.1875 0,1.5 -1.5,0 -119.84375,0 -1.5,0 0,-1.5 0,-123.6875 0,-1.5 1.5,0 28.9375,0 1.53125,-0.0312 z"
         style="color:#000000;fill:#502d16;fill-opacity:0.77092513;fill-rule:nonzero;stroke:#28170b;stroke-width:3.54330707;stroke-linecap:round;stroke-miterlimit:4;stroke-opacity:1;stroke-dasharray:none;stroke-dashoffset:0;marker:none;visibility:visible;display:inline;overflow:visible;enable-background:accumulate" />
      <path
         inkscape:connector-curvature="0"
         id="path4033-5"
         d="m 650.7523,205.66257 -16.0041,-7.22705 -1.77408,-0.80301 -1.04577,1.64336 -20.65406,32.53108 -2.18493,3.45479 4.07106,0 33.91299,0 0,24.94921 -31.67205,0 0,-15.64928 24.09018,0 0.0187,-4.50057 -26.3498,0.0187 -2.25962,-0.0187 0.0187,2.25962 0,20.13117 0,2.24095 2.24095,0 36.15394,0 2.24094,0 0,-2.24095 0,-29.4311 0.0187,-2.25962 -2.25962,0.0187 -32.08289,0 17.44204,-27.4516 14.23001,6.42405 1.84878,-4.08973 z"
         style="font-size:medium;font-style:normal;font-variant:normal;font-weight:normal;font-stretch:normal;text-indent:0;text-align:start;text-decoration:none;line-height:normal;letter-spacing:normal;word-spacing:normal;text-transform:none;direction:ltr;block-progression:tb;writing-mode:lr-tb;text-anchor:start;baseline-shift:baseline;color:#000000;fill:#28170b;fill-opacity:1;stroke:#28170b;stroke-width:1.0629921;stroke-miterlimit:4;stroke-dasharray:none;marker:none;visibility:visible;display:inline;overflow:visible;enable-background:accumulate;font-family:Sans;-inkscape-font-specification:Sans" />
      <path
         inkscape:connector-curvature="0"
         id="path4035-6"
         d="m 632.26449,249.88392 -19.10407,-0.0187 0,4.51925 19.10407,-0.0187 0,-4.48189 z"
         style="font-size:medium;font-style:normal;font-variant:normal;font-weight:normal;font-stretch:normal;text-indent:0;text-align:start;text-decoration:none;line-height:normal;letter-spacing:normal;word-spacing:normal;text-transform:none;direction:ltr;block-progression:tb;writing-mode:lr-tb;text-anchor:start;baseline-shift:baseline;color:#000000;fill:#28170b;fill-opacity:1;stroke:#28170b;stroke-width:1.0629921;stroke-miterlimit:4;stroke-dasharray:none;marker:none;visibility:visible;display:inline;overflow:visible;enable-background:accumulate;font-family:Sans;-inkscape-font-specification:Sans" />
      <path
         inkscape:connector-curvature="0"
         id="path4037-6"
         d="m 684.4412,222.50702 -25.3227,0 -2.24095,0 -22.54019,-0.0187 0,4.51925 22.54019,-0.0187 0.0187,35.46298 4.48189,0 -0.0187,-35.46298 23.08175,0 0,-4.48189 z"
         style="font-size:medium;font-style:normal;font-variant:normal;font-weight:normal;font-stretch:normal;text-indent:0;text-align:start;text-decoration:none;line-height:normal;letter-spacing:normal;word-spacing:normal;text-transform:none;direction:ltr;block-progression:tb;writing-mode:lr-tb;text-anchor:start;baseline-shift:baseline;color:#000000;fill:#28170b;fill-opacity:1;stroke:#28170b;stroke-width:1.0629921;stroke-miterlimit:4;stroke-dasharray:none;marker:none;visibility:visible;display:inline;overflow:visible;enable-background:accumulate;font-family:Sans;-inkscape-font-specification:Sans" />
      <path
         sodipodi:nodetypes="ccccc"
         inkscape:connector-curvature="0"
         id="path4039-10"
         d="m 688.97911,194.36446 -2.25962,1.1765 -11.5222,20.1125 0.44819,1.79275 z"
         style="font-size:medium;font-style:normal;font-variant:normal;font-weight:normal;font-stretch:normal;text-indent:0;text-align:start;text-decoration:none;line-height:normal;letter-spacing:normal;word-spacing:normal;text-transform:none;direction:ltr;block-progression:tb;writing-mode:lr-tb;text-anchor:start;baseline-shift:baseline;color:#000000;fill:#28170b;fill-opacity:1;stroke:#28170b;stroke-width:1.0629921;stroke-miterlimit:4;stroke-dasharray:none;marker:none;visibility:visible;display:inline;overflow:visible;enable-background:accumulate;font-family:Sans;-inkscape-font-specification:Sans" />
      <path
         transform="matrix(2.7052443,0,0,1.9372831,-182.41146,-830.78204)"
         sodipodi:open="true"
         sodipodi:end="6.2828323"
         sodipodi:start="0"
         d="m 305.5,524.98718 c 0,2.69239 -1.00736,4.875 -2.25,4.875 -1.24264,0 -2.25,-2.18261 -2.25,-4.875 0,-2.69239 1.00736,-4.875 2.25,-4.875 1.24233,0 2.24956,2.18157 2.25,4.87328"
         sodipodi:ry="4.875"
         sodipodi:rx="2.25"
         sodipodi:cy="524.98718"
         sodipodi:cx="303.25"
         id="path4041-4"
         style="color:#000000;fill:#28170b;stroke:#28170b;stroke-width:0.48399749;stroke-miterlimit:4;stroke-opacity:1;stroke-dasharray:none;marker:none;visibility:visible;display:inline;overflow:visible;enable-background:accumulate"
         sodipodi:type="arc" />
      <path
         sodipodi:nodetypes="cccccccc"
         id="polygon8-7-1"
         d="m 604.13599,174.05622 -1.79259,-1.04114 0,-4.41236 -3.53545,0 4.30203,-13.98104 5.0076,13.98105 -3.98159,-1e-5 0,5.4535 z"
         style="fill:#55d400;stroke:#55d400;stroke-width:0.22139426;stroke-miterlimit:10"
         inkscape:connector-curvature="0" />
      <path
         sodipodi:nodetypes="cccccccc"
         id="polygon8-1-0-5"
         d="m 613.60085,173.13945 -1.79258,0.31099 -10e-6,-4.84772 -3.39798,0 4.16457,-14.07277 4.77843,14.07278 -3.75242,0 -10e-6,4.53672 z"
         style="fill:#55d400;stroke:#55d400;stroke-width:0.22139426;stroke-miterlimit:10"
         inkscape:connector-curvature="0" />
      <text
         sodipodi:linespacing="125%"
         id="text4163-2"
         y="282.48526"
         x="653.22937"
         style="font-size:7.13527584px;font-style:normal;font-variant:normal;font-weight:normal;font-stretch:normal;text-align:center;line-height:125%;letter-spacing:0px;word-spacing:0px;text-anchor:middle;fill:#28170b;fill-opacity:1;stroke:none;font-family:Segoe Print;-inkscape-font-specification:Segoe Print"
         xml:space="preserve"><tspan
           style="font-style:normal;font-variant:normal;font-weight:normal;font-stretch:normal;fill:#28170b;font-family:SKYfontThick;-inkscape-font-specification:SKYfontThick"
           y="282.48526"
           x="653.22937"
           id="tspan4165-4"
           sodipodi:role="line">AMALIA DEL VALLE</tspan><tspan
           style="font-style:normal;font-variant:normal;font-weight:normal;font-stretch:normal;fill:#28170b;font-family:SKYfontThick;-inkscape-font-specification:SKYfontThick"
           id="tspan4167-3"
           y="291.40436"
           x="653.22937"
           sodipodi:role="line">HERRERA DE AGUIRRE</tspan></text>
      <path
         sodipodi:nodetypes="ccccc"
         inkscape:connector-curvature="0"
         id="path4039-1-5"
         d="m 673.32427,218.99009 -1.54717,-1.22317 -23.17904,0.0777 -1.92999,1.13906 z"
         style="font-size:medium;font-style:normal;font-variant:normal;font-weight:normal;font-stretch:normal;text-indent:0;text-align:start;text-decoration:none;line-height:normal;letter-spacing:normal;word-spacing:normal;text-transform:none;direction:ltr;block-progression:tb;writing-mode:lr-tb;text-anchor:start;baseline-shift:baseline;color:#000000;fill:#28170b;fill-opacity:1;stroke:#28170b;stroke-width:1.0629921;stroke-miterlimit:4;stroke-dasharray:none;marker:none;visibility:visible;display:inline;overflow:visible;enable-background:accumulate;font-family:Sans;-inkscape-font-specification:Sans" />
      <text
         sodipodi:linespacing="125%"
         id="text4163-3-7"
         y="137.04131"
         x="653.02557"
         style="font-size:7.13527584px;font-style:normal;font-variant:normal;font-weight:normal;font-stretch:normal;text-align:center;line-height:125%;letter-spacing:0px;word-spacing:0px;text-anchor:middle;fill:#28170b;fill-opacity:1;stroke:none;font-family:Segoe Print;-inkscape-font-specification:Segoe Print"
         xml:space="preserve"><tspan
           style="font-style:normal;font-variant:normal;font-weight:normal;font-stretch:normal;fill:#28170b;font-family:SKYfontThick;-inkscape-font-specification:SKYfontThick"
           id="tspan4167-5-5"
           y="137.04131"
           x="653.02557"
           sodipodi:role="line">ESCUELA TÉCNICA</tspan></text>
    </g>
  </g>
</svg>
